<svg width="495" height="131" viewBox="0 0 495 131" fill="none" xmlns="http://www.w3.org/2000/svg">
<path d="M28.704 97.48C27.488 97.48 26.496 97.128 25.728 96.424C25.024 95.656 24.672 94.664 24.672 93.448V36.04H4.032C2.88 36.04 1.984 35.752 1.344 35.176C0.704 34.6 0.384 33.768 0.384 32.68C0.384 31.592 0.704 30.76 1.344 30.184C1.984 29.608 2.88 29.32 4.032 29.32H53.28C54.432 29.32 55.328 29.608 55.968 30.184C56.608 30.76 56.928 31.592 56.928 32.68C56.928 33.768 56.608 34.6 55.968 35.176C55.328 35.752 54.432 36.04 53.28 36.04H32.64V93.448C32.64 94.664 32.288 95.656 31.584 96.424C30.88 97.128 29.92 97.48 28.704 97.48ZM80.3985 49.288C83.0865 49.096 84.4305 50.184 84.4305 52.552C84.4305 53.576 84.1425 54.408 83.5665 55.048C82.9905 55.624 81.9985 55.976 80.5905 56.104L77.7105 56.392C73.4225 56.776 70.2225 58.312 68.1105 61C66.0625 63.624 65.0385 66.728 65.0385 70.312V93.64C65.0385 94.92 64.6865 95.88 63.9825 96.52C63.2785 97.16 62.3505 97.48 61.1985 97.48C60.0465 97.48 59.0865 97.16 58.3185 96.52C57.6145 95.816 57.2625 94.856 57.2625 93.64V53.128C57.2625 51.912 57.6465 50.984 58.4145 50.344C59.1825 49.64 60.1105 49.288 61.1985 49.288C62.2225 49.288 63.0865 49.64 63.7905 50.344C64.4945 50.984 64.8465 51.88 64.8465 53.032V58.408C66.1905 55.592 68.0785 53.448 70.5105 51.976C73.0065 50.504 75.8545 49.64 79.0545 49.384L80.3985 49.288ZM126.626 49.288C127.842 49.288 128.77 49.64 129.41 50.344C130.114 51.048 130.466 51.976 130.466 53.128V93.736C130.466 94.824 130.114 95.72 129.41 96.424C128.77 97.128 127.842 97.48 126.626 97.48C125.474 97.48 124.546 97.16 123.842 96.52C123.202 95.816 122.882 94.92 122.882 93.832V89.032C121.41 91.848 119.33 93.992 116.642 95.464C114.018 96.936 111.042 97.672 107.714 97.672C102.146 97.672 97.9543 96.136 95.1383 93.064C92.3223 89.928 90.9143 85.32 90.9143 79.24V53.128C90.9143 51.976 91.2663 51.048 91.9703 50.344C92.6743 49.64 93.6343 49.288 94.8503 49.288C96.0663 49.288 96.9943 49.64 97.6343 50.344C98.3383 51.048 98.6903 51.976 98.6903 53.128V79.048C98.6903 83.208 99.5223 86.28 101.186 88.264C102.85 90.184 105.474 91.144 109.058 91.144C113.154 91.144 116.45 89.832 118.946 87.208C121.442 84.52 122.69 81 122.69 76.648V53.128C122.69 51.976 123.042 51.048 123.746 50.344C124.45 49.64 125.41 49.288 126.626 49.288ZM164.215 97.672C159.863 97.672 155.991 96.68 152.599 94.696C149.271 92.712 146.679 89.896 144.823 86.248C143.031 82.6 142.135 78.376 142.135 73.576C142.135 68.776 143.063 64.52 144.919 60.808C146.839 57.096 149.495 54.216 152.887 52.168C156.279 50.12 160.183 49.096 164.599 49.096C167.031 49.096 169.431 49.448 171.799 50.152C174.231 50.792 176.343 51.752 178.135 53.032C179.287 53.8 180.087 54.568 180.535 55.336C181.047 56.04 181.303 56.84 181.303 57.736C181.303 58.632 181.047 59.368 180.535 59.944C180.087 60.52 179.479 60.808 178.711 60.808C178.263 60.808 177.783 60.68 177.271 60.424C176.759 60.168 176.311 59.912 175.927 59.656C175.607 59.4 175.383 59.24 175.255 59.176C173.591 58.088 171.991 57.224 170.455 56.584C168.983 55.944 167.159 55.624 164.983 55.624C160.311 55.624 156.663 57.224 154.039 60.424C151.479 63.56 150.199 67.944 150.199 73.576C150.199 79.208 151.479 83.56 154.039 86.632C156.663 89.704 160.311 91.24 164.983 91.24C167.159 91.24 169.015 90.92 170.551 90.28C172.151 89.64 173.751 88.776 175.351 87.688C176.055 87.24 176.727 86.856 177.367 86.536C178.007 86.216 178.551 86.056 178.999 86.056C179.703 86.056 180.279 86.344 180.727 86.92C181.239 87.496 181.495 88.232 181.495 89.128C181.495 89.96 181.271 90.728 180.823 91.432C180.375 92.072 179.543 92.808 178.327 93.64C176.535 94.856 174.359 95.848 171.799 96.616C169.303 97.32 166.775 97.672 164.215 97.672ZM228.2 90.856C229.224 91.816 229.736 92.84 229.736 93.928C229.736 94.888 229.384 95.72 228.68 96.424C228.04 97.128 227.24 97.48 226.28 97.48C225.448 97.48 224.584 97.096 223.688 96.328L198.632 74.728V93.64C198.632 94.856 198.248 95.816 197.48 96.52C196.776 97.16 195.88 97.48 194.792 97.48C193.64 97.48 192.68 97.16 191.912 96.52C191.208 95.816 190.856 94.856 190.856 93.64V32.68C190.856 31.464 191.208 30.536 191.912 29.896C192.68 29.192 193.64 28.84 194.792 28.84C195.88 28.84 196.776 29.192 197.48 29.896C198.248 30.536 198.632 31.464 198.632 32.68V71.656L221.576 50.632C222.344 49.864 223.208 49.48 224.168 49.48C225.128 49.48 225.96 49.832 226.664 50.536C227.368 51.24 227.72 52.072 227.72 53.032C227.72 54.12 227.272 55.08 226.376 55.912L207.464 72.808L228.2 90.856ZM253.757 97.672C250.813 97.672 247.997 97.32 245.309 96.616C242.685 95.912 240.349 94.92 238.301 93.64C237.149 92.872 236.317 92.168 235.805 91.528C235.357 90.824 235.133 89.992 235.133 89.032C235.133 88.2 235.357 87.528 235.805 87.016C236.317 86.44 236.957 86.152 237.725 86.152C238.493 86.152 239.613 86.632 241.085 87.592C243.005 88.744 244.893 89.672 246.749 90.376C248.669 91.016 251.037 91.336 253.853 91.336C257.309 91.336 259.997 90.728 261.917 89.512C263.837 88.296 264.797 86.536 264.797 84.232C264.797 82.824 264.445 81.704 263.741 80.872C263.037 79.976 261.821 79.208 260.093 78.568C258.365 77.864 255.837 77.16 252.509 76.456C246.877 75.24 242.845 73.608 240.413 71.56C237.981 69.512 236.765 66.728 236.765 63.208C236.765 60.456 237.533 58.024 239.069 55.912C240.605 53.8 242.717 52.136 245.405 50.92C248.157 49.704 251.261 49.096 254.717 49.096C257.213 49.096 259.613 49.448 261.917 50.152C264.285 50.792 266.365 51.72 268.157 52.936C270.333 54.472 271.421 56.072 271.421 57.736C271.421 58.568 271.165 59.272 270.653 59.848C270.141 60.424 269.533 60.712 268.829 60.712C268.061 60.712 266.909 60.168 265.373 59.08C263.581 57.928 261.885 57.032 260.285 56.392C258.685 55.752 256.701 55.432 254.333 55.432C251.325 55.432 248.893 56.104 247.037 57.448C245.245 58.792 244.349 60.584 244.349 62.824C244.349 64.232 244.669 65.384 245.309 66.28C246.013 67.112 247.133 67.88 248.669 68.584C250.269 69.224 252.541 69.864 255.484 70.504C259.837 71.464 263.197 72.52 265.565 73.672C267.997 74.824 269.725 76.232 270.749 77.896C271.773 79.56 272.285 81.672 272.285 84.232C272.285 88.264 270.589 91.528 267.197 94.024C263.805 96.456 259.325 97.672 253.757 97.672ZM307.658 49.096C311.754 49.096 315.37 50.12 318.506 52.168C321.642 54.216 324.074 57.096 325.802 60.808C327.53 64.456 328.394 68.712 328.394 73.576C328.394 78.44 327.53 82.696 325.802 86.344C324.074 89.928 321.642 92.712 318.506 94.696C315.434 96.68 311.818 97.672 307.658 97.672C304.01 97.672 300.81 96.872 298.058 95.272C295.37 93.672 293.322 91.4 291.914 88.456V111.016C291.914 112.168 291.562 113.064 290.858 113.704C290.218 114.408 289.29 114.76 288.074 114.76C286.858 114.76 285.898 114.408 285.194 113.704C284.49 113 284.138 112.104 284.138 111.016V53.128C284.138 51.976 284.49 51.048 285.194 50.344C285.898 49.64 286.858 49.288 288.074 49.288C289.29 49.288 290.218 49.64 290.858 50.344C291.562 51.048 291.914 51.976 291.914 53.128V58.312C293.322 55.368 295.37 53.096 298.058 51.496C300.81 49.896 304.01 49.096 307.658 49.096ZM306.122 91.24C310.666 91.24 314.186 89.704 316.682 86.632C319.178 83.56 320.426 79.208 320.426 73.576C320.426 67.944 319.178 63.56 316.682 60.424C314.186 57.224 310.666 55.624 306.122 55.624C301.578 55.624 298.058 57.16 295.562 60.232C293.13 63.304 291.914 67.688 291.914 73.384C291.914 79.08 293.13 83.496 295.562 86.632C298.058 89.704 301.578 91.24 306.122 91.24ZM359.117 49.096C370.829 49.096 376.685 55.24 376.685 67.528V93.64C376.685 94.792 376.333 95.72 375.629 96.424C374.989 97.128 374.093 97.48 372.941 97.48C371.789 97.48 370.861 97.128 370.157 96.424C369.453 95.72 369.101 94.792 369.101 93.64V89.032C367.885 91.784 366.029 93.928 363.533 95.464C361.037 96.936 358.157 97.672 354.893 97.672C351.885 97.672 349.101 97.064 346.541 95.848C344.045 94.632 342.061 92.936 340.589 90.76C339.117 88.584 338.381 86.184 338.381 83.56C338.381 80.04 339.277 77.32 341.069 75.4C342.861 73.416 345.805 72.008 349.901 71.176C353.997 70.28 359.693 69.832 366.989 69.832H369.101V66.664C369.101 62.824 368.301 60.008 366.701 58.216C365.165 56.424 362.637 55.528 359.117 55.528C354.765 55.528 350.349 56.712 345.869 59.08C344.141 60.168 342.925 60.712 342.221 60.712C341.453 60.712 340.813 60.424 340.301 59.848C339.789 59.272 339.533 58.536 339.533 57.64C339.533 56.744 339.789 55.976 340.301 55.336C340.877 54.632 341.773 53.928 342.989 53.224C345.229 51.944 347.757 50.952 350.573 50.248C353.453 49.48 356.301 49.096 359.117 49.096ZM355.949 91.528C359.789 91.528 362.925 90.248 365.357 87.688C367.853 85.064 369.101 81.704 369.101 77.608V74.824H367.373C361.741 74.824 357.453 75.08 354.509 75.592C351.565 76.04 349.453 76.84 348.173 77.992C346.957 79.08 346.349 80.712 346.349 82.888C346.349 85.384 347.245 87.464 349.037 89.128C350.893 90.728 353.197 91.528 355.949 91.528ZM487.591 86.152C488.295 86.152 488.903 86.44 489.415 87.016C489.927 87.592 490.183 88.328 490.183 89.224C490.183 90.824 489.063 92.296 486.823 93.64C484.519 94.984 482.087 96.008 479.527 96.712C476.967 97.352 474.471 97.672 472.039 97.672C464.807 97.672 459.079 95.528 454.855 91.24C450.695 86.952 448.615 81.032 448.615 73.48C448.615 68.68 449.543 64.456 451.399 60.808C453.255 57.096 455.847 54.216 459.175 52.168C462.567 50.12 466.407 49.096 470.695 49.096C476.775 49.096 481.607 51.08 485.191 55.048C488.775 59.016 490.567 64.392 490.567 71.176C490.567 72.456 490.311 73.384 489.799 73.96C489.287 74.536 488.455 74.824 487.303 74.824H456.391C456.967 85.832 462.183 91.336 472.039 91.336C474.535 91.336 476.679 91.016 478.471 90.376C480.263 89.672 482.183 88.744 484.231 87.592C485.895 86.632 487.015 86.152 487.591 86.152ZM470.791 55.144C466.695 55.144 463.399 56.424 460.903 58.984C458.471 61.544 457.031 65.16 456.583 69.832H483.751C483.623 65.096 482.439 61.48 480.199 58.984C477.959 56.424 474.823 55.144 470.791 55.144Z" fill="#F1F5F9"/>
<path d="M405.5 54C383.8 62.9833 387.839 83.2704 396.268 91" stroke="#C3DDFD" stroke-width="6" stroke-linecap="round" stroke-linejoin="round"/>
<path d="M396.394 90.572C385.028 119.844 400.26 109.768 419.957 78.7168C439.653 47.6651 439.381 28.1689 418.909 53.9407" stroke="#C3DDFD" stroke-width="6" stroke-miterlimit="2.16" stroke-linecap="round"/>
<path d="M419.5 54C444.635 60.5549 441.322 91.7157 422.629 97" stroke="#C3DDFD" stroke-width="6" stroke-miterlimit="2.16" stroke-linecap="round"/>
</svg>
