<svg width="627" height="78" viewBox="0 0 627 78" fill="none" xmlns="http://www.w3.org/2000/svg">
<path d="M98.016 17.2H106.336V54.96H129.76V62H98.016V17.2ZM148.929 27.44C153.964 27.44 157.804 28.656 160.449 31.088C163.137 33.4773 164.481 37.104 164.481 41.968V62H156.929V57.84C155.948 59.3333 154.54 60.4853 152.705 61.296C150.913 62.064 148.737 62.448 146.177 62.448C143.617 62.448 141.377 62.0213 139.457 61.168C137.537 60.272 136.044 59.056 134.977 57.52C133.953 55.9413 133.441 54.1707 133.441 52.208C133.441 49.136 134.572 46.6827 136.833 44.848C139.137 42.9707 142.742 42.032 147.649 42.032H156.481V41.52C156.481 39.1307 155.756 37.296 154.305 36.016C152.897 34.736 150.785 34.096 147.969 34.096C146.049 34.096 144.15 34.3947 142.273 34.992C140.438 35.5893 138.881 36.4213 137.601 37.488L134.465 31.664C136.257 30.2987 138.412 29.2533 140.929 28.528C143.446 27.8027 146.113 27.44 148.929 27.44ZM147.841 56.624C149.846 56.624 151.617 56.176 153.153 55.28C154.732 54.3413 155.841 53.0187 156.481 51.312V47.344H148.225C143.617 47.344 141.313 48.8587 141.313 51.888C141.313 53.3387 141.889 54.4907 143.041 55.344C144.193 56.1973 145.793 56.624 147.841 56.624ZM182.364 32.816C184.668 29.232 188.721 27.44 194.524 27.44V35.056C193.841 34.928 193.223 34.864 192.668 34.864C189.553 34.864 187.121 35.7813 185.372 37.616C183.623 39.408 182.748 42.0107 182.748 45.424V62H174.748V27.824H182.364V32.816ZM214.179 27.44C219.214 27.44 223.054 28.656 225.699 31.088C228.387 33.4773 229.731 37.104 229.731 41.968V62H222.179V57.84C221.198 59.3333 219.79 60.4853 217.955 61.296C216.163 62.064 213.987 62.448 211.427 62.448C208.867 62.448 206.627 62.0213 204.707 61.168C202.787 60.272 201.294 59.056 200.227 57.52C199.203 55.9413 198.691 54.1707 198.691 52.208C198.691 49.136 199.822 46.6827 202.083 44.848C204.387 42.9707 207.992 42.032 212.899 42.032H221.731V41.52C221.731 39.1307 221.006 37.296 219.555 36.016C218.147 34.736 216.035 34.096 213.219 34.096C211.299 34.096 209.4 34.3947 207.523 34.992C205.688 35.5893 204.131 36.4213 202.851 37.488L199.715 31.664C201.507 30.2987 203.662 29.2533 206.179 28.528C208.696 27.8027 211.363 27.44 214.179 27.44ZM213.091 56.624C215.096 56.624 216.867 56.176 218.403 55.28C219.982 54.3413 221.091 53.0187 221.731 51.312V47.344H213.475C208.867 47.344 206.563 48.8587 206.563 51.888C206.563 53.3387 207.139 54.4907 208.291 55.344C209.443 56.1973 211.043 56.624 213.091 56.624ZM271.373 27.824L256.717 62H248.461L233.805 27.824H242.125L252.749 53.168L263.693 27.824H271.373ZM307.564 45.104C307.564 45.6587 307.521 46.448 307.436 47.472H280.62C281.089 49.9893 282.305 51.9947 284.268 53.488C286.273 54.9387 288.748 55.664 291.692 55.664C295.446 55.664 298.54 54.4267 300.972 51.952L305.26 56.88C303.724 58.7147 301.782 60.1013 299.436 61.04C297.089 61.9787 294.444 62.448 291.5 62.448C287.745 62.448 284.438 61.7013 281.58 60.208C278.721 58.7147 276.502 56.6453 274.924 54C273.388 51.312 272.62 48.2827 272.62 44.912C272.62 41.584 273.366 38.5973 274.86 35.952C276.396 33.264 278.508 31.1733 281.196 29.68C283.884 28.1867 286.913 27.44 290.284 27.44C293.612 27.44 296.577 28.1867 299.18 29.68C301.825 31.1307 303.873 33.2 305.324 35.888C306.817 38.5333 307.564 41.6053 307.564 45.104ZM290.284 33.84C287.724 33.84 285.548 34.608 283.756 36.144C282.006 37.6373 280.94 39.6427 280.556 42.16H299.948C299.606 39.6853 298.561 37.68 296.812 36.144C295.062 34.608 292.886 33.84 290.284 33.84ZM315.248 14.512H323.248V62H315.248V14.512ZM412.962 17.2L397.794 62H394.338L380.45 21.808L366.498 62H363.042L347.81 17.2H351.266L364.898 57.52L378.914 17.2H382.05L396.002 57.584L409.762 17.2H412.962ZM430.048 28.336C434.187 28.336 437.365 29.4027 439.584 31.536C441.803 33.6267 442.912 36.72 442.912 40.816V62H439.84V56.048C438.773 58.0107 437.216 59.5467 435.168 60.656C433.12 61.7227 430.667 62.256 427.808 62.256C424.096 62.256 421.152 61.3813 418.976 59.632C416.843 57.8827 415.776 55.5787 415.776 52.72C415.776 49.9467 416.757 47.7067 418.72 46C420.725 44.2507 423.904 43.376 428.256 43.376H439.712V40.688C439.712 37.5733 438.859 35.2053 437.152 33.584C435.488 31.9627 433.035 31.152 429.792 31.152C427.573 31.152 425.44 31.536 423.392 32.304C421.387 33.072 419.68 34.096 418.272 35.376L416.672 33.072C418.336 31.5787 420.341 30.4267 422.688 29.616C425.035 28.7627 427.488 28.336 430.048 28.336ZM428.256 59.632C431.029 59.632 433.376 58.992 435.296 57.712C437.259 56.432 438.731 54.576 439.712 52.144V45.872H428.32C425.035 45.872 422.645 46.4693 421.152 47.664C419.701 48.8587 418.976 50.5013 418.976 52.592C418.976 54.768 419.787 56.496 421.408 57.776C423.029 59.0133 425.312 59.632 428.256 59.632ZM456.097 14.512H459.297V62H456.097V14.512ZM484.688 44.144L475.984 52.08V62H472.784V14.512H475.984V48.112L497.36 28.592H501.456L487.056 42.096L502.864 62H498.896L484.688 44.144ZM556.466 28.592L543.794 62H540.786L529.522 33.008L518.194 62H515.25L502.578 28.592H505.65L516.786 58.416L528.178 28.592H530.93L542.258 58.352L553.522 28.592H556.466ZM574.173 28.336C578.312 28.336 581.49 29.4027 583.709 31.536C585.928 33.6267 587.037 36.72 587.037 40.816V62H583.965V56.048C582.898 58.0107 581.341 59.5467 579.293 60.656C577.245 61.7227 574.792 62.256 571.933 62.256C568.221 62.256 565.277 61.3813 563.101 59.632C560.968 57.8827 559.901 55.5787 559.901 52.72C559.901 49.9467 560.882 47.7067 562.845 46C564.85 44.2507 568.029 43.376 572.381 43.376H583.837V40.688C583.837 37.5733 582.984 35.2053 581.277 33.584C579.613 31.9627 577.16 31.152 573.917 31.152C571.698 31.152 569.565 31.536 567.517 32.304C565.512 33.072 563.805 34.096 562.397 35.376L560.797 33.072C562.461 31.5787 564.466 30.4267 566.813 29.616C569.16 28.7627 571.613 28.336 574.173 28.336ZM572.381 59.632C575.154 59.632 577.501 58.992 579.421 57.712C581.384 56.432 582.856 54.576 583.837 52.144V45.872H572.445C569.16 45.872 566.77 46.4693 565.277 47.664C563.826 48.8587 563.101 50.5013 563.101 52.592C563.101 54.768 563.912 56.496 565.533 57.776C567.154 59.0133 569.437 59.632 572.381 59.632ZM626.413 28.592L609.26 66.544C607.981 69.488 606.487 71.5787 604.781 72.816C603.117 74.0533 601.133 74.672 598.829 74.672C597.293 74.672 595.842 74.416 594.477 73.904C593.154 73.392 592.023 72.6453 591.084 71.664L592.684 69.232C594.391 70.9813 596.461 71.856 598.893 71.856C600.514 71.856 601.901 71.408 603.053 70.512C604.205 69.616 605.271 68.08 606.253 65.904L608.045 61.872L593.005 28.592H596.397L609.773 58.48L623.149 28.592H626.413Z" fill="black"/>
<path d="M41.427 27.6519C41.4038 29.0139 41.6498 30.367 42.151 31.6336C42.7286 33.1115 43.809 34.3383 45.2019 35.0983H45.2743C46.5833 29.7947 48.3944 24.6279 50.6832 19.6678C51.2494 18.5219 52.6255 18.0357 53.7859 18.5715C52.8728 15.7059 51.7706 12.9039 50.4867 10.1841C50.1368 9.482 49.4199 9.03828 48.6355 9.03828C47.8511 9.03828 47.1342 9.482 46.7843 10.1841C44.6745 14.4864 41.427 24.0218 41.427 27.6519Z" fill="#60A917"/>
<path d="M6.26377 27.6519C6.26377 32.2335 8.55972 34.9638 11.6831 35.7084C12.8793 35.998 14.1273 35.998 15.3235 35.7084C17.4674 35.2174 19.2249 33.6888 20.0085 31.6336C20.5185 30.3693 20.7683 29.015 20.7428 27.6519C20.7428 24.0218 17.4953 14.4864 15.3545 10.1841C15.0046 9.482 14.2877 9.03828 13.5033 9.03828C12.7188 9.03828 12.0019 9.482 11.652 10.1841C9.5112 14.4864 6.26377 24.0218 6.26377 27.6519Z" fill="#A4C400"/>
<path d="M11.652 10.1841C11.9612 9.56965 12.5555 9.14911 13.2378 9.06201C13.92 8.97491 14.601 9.23265 15.0546 9.74968C14.9372 9.88167 14.8365 10.0276 14.7546 10.1841C12.6138 14.4864 9.36639 24.0218 9.36639 27.6519C9.36639 32.2335 11.6623 34.9638 14.7857 35.7085L15.0546 35.7602C14.5445 35.8685 14.0247 35.924 13.5032 35.9256C12.8899 35.928 12.2786 35.855 11.683 35.7085C8.58039 34.9638 6.26376 32.2335 6.26376 27.6519C6.26376 24.0218 9.51118 14.4864 11.652 10.1841Z" fill="#90AC00"/>
<path d="M13.5032 32.823C16.1302 32.823 17.6401 30.9407 17.6401 27.6519C17.6401 27.0807 17.1771 26.6177 16.6059 26.6177C16.0347 26.6177 15.5717 27.0807 15.5717 27.6519C15.5717 30.7546 14.0721 30.7546 13.5032 30.7546C12.9321 30.7546 12.469 31.2176 12.469 31.7888C12.469 32.36 12.9321 32.823 13.5032 32.823Z" fill="#90AC00"/>
<path d="M16.6059 41.0967C15.6225 39.4801 15.1737 37.5947 15.3235 35.7085C14.1273 35.998 12.8792 35.998 11.683 35.7085C11.8328 37.5947 11.384 39.4801 10.4006 41.0967H16.6059Z" fill="#A0522D"/>
<path d="M18.6743 61.781C22.5517 63.536 26.1818 65.7926 29.4715 68.493C29.8471 68.8293 30.3326 69.0169 30.8367 69.0205H55.0373C55.4291 69.0305 55.793 68.8182 55.977 68.4721C56.161 68.126 56.1335 67.7056 55.906 67.3864C48.2115 56.5065 32.9155 55.4309 27.9823 52.4731C22.8112 49.3704 40.3928 46.2678 40.3928 40.0625C40.3928 36.2566 34.5495 32.823 30.0507 30.7546C28.4166 30.7546 26.8446 30.827 25.3347 30.9717H25.2623C27.7651 33.4021 32.2018 38.7284 25.9242 41.0864C17.6401 44.1993 -5.11258 50.4046 18.6743 61.781Z" fill="#FFEB3A"/>
<path d="M25.9138 41.0967C32.1915 38.7387 27.7547 33.4125 25.2519 30.9821H25.3243C26.8343 30.8304 28.4097 30.7546 30.0507 30.7546L30.2678 30.858C29.6473 30.858 29.0371 30.92 28.4373 30.9717H28.3649C30.8677 33.4021 35.3045 38.7284 29.0268 41.0864C20.7531 44.189 -1.99963 50.3943 21.7873 61.7706C25.6647 63.5256 29.2948 65.7823 32.5845 68.4827C32.9601 68.819 33.4455 69.0066 33.9496 69.0101H30.847C30.3429 69.0066 29.8574 68.819 29.4818 68.4827C26.1883 65.7851 22.5547 63.532 18.6743 61.781C-5.11261 50.4046 17.6401 44.1993 25.9138 41.0967Z" fill="#FFDC00"/>
<path d="M44.5297 39.8246C44.5297 45.2853 47.3531 48.4913 51.1176 49.2153C52.2319 49.4222 53.3748 49.4222 54.4891 49.2153C58.2537 48.4913 61.0771 45.2853 61.0771 39.8246C61.0771 35.6361 57.3746 24.632 54.8718 19.6678C54.6345 19.2085 54.2478 18.8438 53.7755 18.6336H53.8376C52.6772 18.0977 51.3011 18.5839 50.735 19.7299C48.4321 24.6682 46.6037 29.8141 45.2743 35.0983C44.8557 36.6421 44.606 38.2269 44.5297 39.8246Z" fill="#A4C400"/>
<path d="M52.8034 46.2678C56.0405 46.2678 57.9745 43.8581 57.9745 39.8246C57.9745 39.2534 57.5114 38.7904 56.9402 38.7904C56.3691 38.7904 55.906 39.2534 55.906 39.8246C55.906 42.7308 54.8718 44.1993 52.8034 44.1993C52.2322 44.1993 51.7692 44.6624 51.7692 45.2336C51.7692 45.8047 52.2322 46.2678 52.8034 46.2678Z" fill="#90AC00"/>
<path d="M49.7008 54.5415H55.906C54.9181 52.945 54.425 51.0917 54.4892 49.2153C53.3748 49.4222 52.232 49.4222 51.1176 49.2153C51.1818 51.0917 50.6887 52.945 49.7008 54.5415Z" fill="#A0522D"/>
<path d="M33.1533 65.9178C32.5821 65.9178 32.1191 65.4548 32.1191 64.8836C32.1191 64.3124 32.5821 63.8494 33.1533 63.8494C33.7245 63.8494 34.1875 64.3124 34.1875 64.8836C34.1875 65.4548 33.7245 65.9178 33.1533 65.9178Z" fill="#FF9801"/>
<path d="M33.1533 59.7126C32.5821 59.7126 32.1191 59.2495 32.1191 58.6783C32.1191 58.1072 32.5821 57.6441 33.1533 57.6441C33.7245 57.6441 34.1875 58.1072 34.1875 58.6783C34.1875 59.2495 33.7245 59.7126 33.1533 59.7126Z" fill="#FF9801"/>
<path d="M13.5032 51.4388C12.9321 51.4388 12.469 50.9758 12.469 50.4046C12.469 49.8334 12.9321 49.3704 13.5032 49.3704C14.0744 49.3704 14.5374 49.8334 14.5374 50.4046C14.5374 50.9758 14.0744 51.4388 13.5032 51.4388Z" fill="#FF9801"/>
<path d="M18.6743 49.3704C18.1031 49.3704 17.6401 48.9074 17.6401 48.3362C17.6401 47.765 18.1031 47.302 18.6743 47.302C19.2455 47.302 19.7085 47.765 19.7085 48.3362C19.7085 48.9074 19.2455 49.3704 18.6743 49.3704Z" fill="#FF9801"/>
<path d="M36.2559 41.0967C35.6848 41.0967 35.2217 40.6337 35.2217 40.0625C35.2217 39.4913 35.6848 39.0283 36.2559 39.0283C36.8271 39.0283 37.2902 39.4913 37.2902 40.0625C37.2902 40.6337 36.8271 41.0967 36.2559 41.0967Z" fill="#FF9801"/>
<path d="M17.6401 52.473C17.0689 52.473 16.6059 52.01 16.6059 51.4388C16.6059 50.8677 17.0689 50.4046 17.6401 50.4046C18.2113 50.4046 18.6743 50.8677 18.6743 51.4388C18.6743 52.01 18.2113 52.473 17.6401 52.473Z" fill="#FF9801"/>
<path d="M24.8796 28.6861C24.8771 29.4731 25.0282 30.253 25.3243 30.9821C26.8343 30.8304 28.4097 30.7546 30.0507 30.7546H31.0849C33.1016 30.7546 35.0252 30.827 36.8454 30.9821C37.1434 30.2535 37.2945 29.4733 37.2902 28.6861C37.2902 25.2591 34.512 22.4809 31.0849 22.4809C27.6578 22.4809 24.8796 25.2591 24.8796 28.6861Z" fill="#FFDC00"/>
<path d="M31.0849 22.4809C31.6089 22.4807 32.1306 22.5502 32.6362 22.6877C29.9 23.3942 27.9867 25.8602 27.9822 28.6861C27.9847 29.4141 28.1178 30.1357 28.3752 30.8166C27.341 30.8166 26.3068 30.8994 25.2726 30.9821C24.9941 30.2495 24.8606 29.4697 24.8796 28.6861C24.8796 25.2591 27.6578 22.4809 31.0849 22.4809Z" fill="#FEC108"/>
<path d="M0.97892 34.5812C2.95724 34.3397 4.92151 33.9945 6.8636 33.5469C5.73693 31.7917 5.16732 29.7367 5.22954 27.6519C5.22954 23.7116 8.55971 14.0624 10.7316 9.71866C11.2585 8.67125 12.3308 8.01033 13.5033 8.01033C14.6757 8.01033 15.748 8.67125 16.2749 9.71866C18.4468 14.0624 21.777 23.7116 21.777 27.6519C21.7765 28.5663 21.6794 29.478 21.4874 30.3719C22.3251 30.2581 23.1525 30.1547 23.9798 30.072C23.8885 29.6157 23.8435 29.1514 23.8454 28.6861C23.8454 24.6879 27.0866 21.4466 31.0849 21.4466C35.0831 21.4466 38.3244 24.6879 38.3244 28.6861C38.3273 29.1515 38.2822 29.6159 38.1899 30.072C39.038 30.1547 39.8654 30.2581 40.672 30.3719C40.4813 29.4779 40.3877 28.566 40.3928 27.6519C40.3928 23.7219 43.723 14.0727 45.8948 9.71866C46.4197 8.66558 47.4951 8 48.6717 8C49.8483 8 50.9237 8.66558 51.4486 9.71866C52.6962 12.3674 53.774 15.0929 54.6753 17.8786C55.1783 18.2095 55.5822 18.6706 55.844 19.2127C58.3157 24.2287 62.1113 35.4499 62.1113 39.8246C62.1113 45.6679 59.1224 48.9257 55.544 50.0013C55.6008 51.4051 56.0213 52.77 56.7644 53.9623C56.9184 54.1899 56.9754 54.4693 56.923 54.739C56.8707 55.0087 56.7131 55.2465 56.4852 55.3999C56.314 55.5149 56.1123 55.5762 55.906 55.5757C55.562 55.5762 55.2403 55.4056 55.0476 55.1206C54.1464 53.7021 53.6132 52.0812 53.4963 50.4046H52.8034H52.1104C51.9987 52.0918 51.4653 53.724 50.5591 55.1517C50.3596 55.4249 50.039 55.5833 49.7007 55.5757C49.4945 55.5762 49.2928 55.5149 49.1216 55.3999C48.8936 55.2465 48.7361 55.0087 48.6837 54.739C48.6313 54.4693 48.6884 54.1899 48.8423 53.9623C49.5854 52.77 50.006 51.4051 50.0627 50.0013C46.4843 48.9671 43.4954 45.6679 43.4954 39.8246C43.5531 38.4049 43.7541 36.9947 44.0953 35.6154C42.9493 34.8595 42.0276 33.8093 41.427 32.5748C39.1157 32.2047 36.7848 31.9699 34.4461 31.8715C39.0794 34.5605 41.427 37.3115 41.427 40.0625C41.427 43.8477 36.7007 46.2678 32.5224 48.45C30.816 49.3394 28.2408 50.6632 28.0546 51.2113C28.1734 51.3709 28.3297 51.4988 28.5097 51.5836C30.5341 52.5692 32.6552 53.3421 34.8391 53.8899C41.6959 55.9583 51.1073 58.8128 56.7334 66.7969C57.1728 67.4253 57.2286 68.2453 56.8782 68.9274C56.5248 69.6189 55.8139 70.0543 55.0373 70.0547H30.8367C30.074 70.0558 29.3377 69.776 28.7682 69.2687C25.5561 66.6332 22.0132 64.4289 18.2296 62.7118C10.5557 59.0403 6.91531 55.5757 7.11181 52.0077C7.39104 46.5677 16.5128 43.3409 23.1628 40.9829C24.0419 40.6727 24.8486 40.3934 25.5518 40.1245C27.0204 39.5764 27.8581 38.8421 28.0443 37.9424C28.3339 36.5255 27.1756 34.395 24.8589 32.0577C23.4938 32.1818 22.1286 32.3473 20.7221 32.5748C19.837 34.402 18.2639 35.804 16.3473 36.4738C16.3284 37.9004 16.7159 39.3029 17.4643 40.5175C17.6182 40.7451 17.6753 41.0246 17.6229 41.2943C17.5705 41.5639 17.413 41.8017 17.1851 41.9551C17.0139 42.0701 16.8122 42.1314 16.6059 42.1309C16.2619 42.1314 15.9401 41.9609 15.7475 41.6759C14.8458 40.2637 14.342 38.6344 14.2892 36.9598C13.7667 37.015 13.2398 37.015 12.7173 36.9598C12.6719 38.6486 12.1678 40.2931 11.259 41.7172C11.0572 41.9866 10.737 42.1409 10.4006 42.1309C10.1943 42.1314 9.99265 42.0701 9.82145 41.9551C9.59351 41.8017 9.43596 41.5639 9.38358 41.2943C9.33119 41.0246 9.38826 40.7451 9.54221 40.5175C10.2906 39.3029 10.6781 37.9004 10.6592 36.4738C9.88535 36.2039 9.15926 35.8129 8.508 35.3154C6.10387 35.9049 3.66528 36.3436 1.20645 36.6289H1.09269C0.521503 36.6603 0.0330048 36.2227 0.00158691 35.6516C-0.0298271 35.0804 0.407742 34.5919 0.97892 34.5605V34.5812ZM52.8034 48.3362C57.1988 48.3362 60.0429 44.9957 60.0429 39.8246C60.0429 35.7912 56.33 24.8595 53.9927 20.1746C53.7707 19.7202 53.3091 19.432 52.8034 19.432C52.2976 19.432 51.8361 19.7202 51.614 20.1746C49.2767 24.8595 45.5639 35.7912 45.5639 39.8246C45.5639 44.9957 48.408 48.3362 52.8034 48.3362ZM49.7628 19.2127C50.2371 18.1911 51.193 17.4762 52.307 17.3098C51.5308 15.0401 50.6262 12.8164 49.5973 10.6495C49.4224 10.2984 49.0639 10.0766 48.6717 10.0766C48.2795 10.0766 47.921 10.2984 47.7461 10.6495C45.7087 14.7346 42.4612 24.1873 42.4612 27.6519C42.3241 29.798 43.1151 31.8996 44.6331 33.4228C45.9346 28.5485 47.6507 23.7945 49.7628 19.2127ZM36.256 28.6861C36.256 25.8302 33.9408 23.5151 31.0849 23.5151C28.229 23.5151 25.9138 25.8302 25.9138 28.6861C25.9166 29.0949 25.9723 29.5016 26.0793 29.8962C27.3514 29.8134 28.6648 29.7514 30.0093 29.7307H31.0849C32.8017 29.7307 34.4668 29.7927 36.0905 29.9065C36.1991 29.5088 36.2547 29.0984 36.256 28.6861ZM30.0507 38.3664C29.7094 40.0004 28.427 41.2518 26.2551 42.0689L23.835 42.9376C18.4261 44.8509 9.35605 48.057 9.14921 52.1214C9.05613 53.8899 10.7109 56.8374 19.0983 60.8502C23.0693 62.6435 26.7866 64.9524 30.1541 67.7174C30.3411 67.8874 30.5839 67.983 30.8367 67.9863H55.0476C49.8248 60.5813 40.8168 57.8613 34.1875 55.8756C31.8418 55.2858 29.567 54.4431 27.4031 53.3625C26.5505 52.9775 25.9867 52.1459 25.9448 51.2113C25.9966 49.4738 28.3132 48.2741 31.5193 46.6194C35.0459 44.8199 39.3586 42.586 39.3586 40.0625C39.3586 37.539 35.8836 34.6225 29.8231 31.7888C29.0371 31.7888 28.2718 31.7888 27.5065 31.8508C29.1612 33.8572 30.5264 36.1738 30.0507 38.3664ZM19.7085 27.6519C19.7085 24.4148 16.6886 15.1793 14.4237 10.6495C14.2467 10.3041 13.8913 10.0868 13.5033 10.0868C13.1152 10.0868 12.7598 10.3041 12.5828 10.6495C10.3179 15.1793 7.29797 24.4148 7.29797 27.6519C7.17241 29.7554 7.92085 31.8173 9.36639 33.3504L9.45947 33.4435C10.1924 34.0947 11.0843 34.5407 12.045 34.7363C12.5238 34.8423 13.0129 34.8943 13.5033 34.8914C17.3298 34.8914 19.7085 32.1197 19.7085 27.6519Z" fill="black"/>
<path d="M30.0507 18.344V16.2756C30.0507 15.7044 30.5137 15.2414 31.0849 15.2414C31.6561 15.2414 32.1191 15.7044 32.1191 16.2756V18.344C32.1191 18.9152 31.6561 19.3782 31.0849 19.3782C30.5137 19.3782 30.0507 18.9152 30.0507 18.344Z" fill="black"/>
<path d="M36.256 20.7641C35.8857 20.7655 35.543 20.569 35.3572 20.2487C35.1715 19.9285 35.1711 19.5334 35.3562 19.2127L36.3904 17.4236C36.676 16.9266 37.3104 16.7553 37.8073 17.0409C38.3042 17.3265 38.4755 17.9608 38.1899 18.4578L37.1557 20.247C36.9702 20.5682 36.6269 20.7655 36.256 20.7641Z" fill="black"/>
<path d="M25.9138 20.7641C25.5429 20.7655 25.1995 20.5682 25.0141 20.247L23.9798 18.4578C23.7951 18.1363 23.7959 17.7407 23.9819 17.42C24.1679 17.0993 24.5109 16.9022 24.8817 16.9029C25.2524 16.9036 25.5946 17.1021 25.7794 17.4236L26.8136 19.2128C26.9987 19.5334 26.9983 19.9285 26.8126 20.2487C26.6268 20.569 26.284 20.7655 25.9138 20.7641Z" fill="black"/>
</svg>
