<svg width="386" height="141" viewBox="0 0 386 141" fill="none" xmlns="http://www.w3.org/2000/svg">
<path d="M44.736 38.84C45.952 38.84 46.912 39.192 47.616 39.896C48.32 40.6 48.672 41.496 48.672 42.584V103.64C48.672 104.792 48.32 105.72 47.616 106.424C46.912 107.128 45.952 107.48 44.736 107.48C43.52 107.48 42.56 107.128 41.856 106.424C41.216 105.72 40.896 104.792 40.896 103.64V98.456C39.488 101.4 37.408 103.672 34.656 105.272C31.968 106.872 28.8 107.672 25.152 107.672C21.056 107.672 17.44 106.648 14.304 104.6C11.168 102.552 8.736 99.704 7.008 96.056C5.28 92.344 4.416 88.056 4.416 83.192C4.416 78.392 5.28 74.168 7.008 70.52C8.736 66.872 11.168 64.056 14.304 62.072C17.44 60.088 21.056 59.096 25.152 59.096C28.8 59.096 31.968 59.896 34.656 61.496C37.408 63.096 39.488 65.368 40.896 68.312V42.584C40.896 41.432 41.216 40.536 41.856 39.896C42.56 39.192 43.52 38.84 44.736 38.84ZM26.688 101.24C31.232 101.24 34.72 99.704 37.152 96.632C39.648 93.496 40.896 89.08 40.896 83.384C40.896 77.688 39.648 73.304 37.152 70.232C34.72 67.16 31.232 65.624 26.688 65.624C22.144 65.624 18.592 67.16 16.032 70.232C13.536 73.304 12.288 77.624 12.288 83.192C12.288 88.888 13.536 93.336 16.032 96.536C18.592 99.672 22.144 101.24 26.688 101.24ZM67.011 107.48C65.859 107.48 64.899 107.16 64.131 106.52C63.427 105.816 63.075 104.856 63.075 103.64V63.128C63.075 61.912 63.427 60.984 64.131 60.344C64.899 59.64 65.859 59.288 67.011 59.288C68.163 59.288 69.091 59.64 69.795 60.344C70.499 60.984 70.851 61.912 70.851 63.128V103.64C70.851 104.92 70.499 105.88 69.795 106.52C69.091 107.16 68.163 107.48 67.011 107.48ZM67.011 49.208C65.475 49.208 64.227 48.76 63.267 47.864C62.307 46.968 61.827 45.784 61.827 44.312C61.827 42.904 62.307 41.752 63.267 40.856C64.227 39.96 65.475 39.512 67.011 39.512C68.547 39.512 69.795 39.96 70.755 40.856C71.715 41.752 72.195 42.904 72.195 44.312C72.195 45.784 71.715 46.968 70.755 47.864C69.795 48.76 68.547 49.208 67.011 49.208ZM108.524 59.288C111.212 59.096 112.556 60.184 112.556 62.552C112.556 63.576 112.268 64.408 111.692 65.048C111.116 65.624 110.124 65.976 108.716 66.104L105.836 66.392C101.548 66.776 98.3475 68.312 96.2355 71C94.1875 73.624 93.1635 76.728 93.1635 80.312V103.64C93.1635 104.92 92.8115 105.88 92.1075 106.52C91.4035 107.16 90.4755 107.48 89.3235 107.48C88.1715 107.48 87.2115 107.16 86.4435 106.52C85.7395 105.816 85.3875 104.856 85.3875 103.64V63.128C85.3875 61.912 85.7715 60.984 86.5395 60.344C87.3075 59.64 88.2355 59.288 89.3235 59.288C90.3475 59.288 91.2115 59.64 91.9155 60.344C92.6195 60.984 92.9715 61.88 92.9715 63.032V68.408C94.3155 65.592 96.2035 63.448 98.6355 61.976C101.132 60.504 103.98 59.64 107.18 59.384L108.524 59.288ZM154.486 96.152C155.19 96.152 155.798 96.44 156.31 97.016C156.822 97.592 157.078 98.328 157.078 99.224C157.078 100.824 155.958 102.296 153.718 103.64C151.414 104.984 148.982 106.008 146.422 106.712C143.862 107.352 141.366 107.672 138.934 107.672C131.702 107.672 125.974 105.528 121.75 101.24C117.59 96.952 115.51 91.032 115.51 83.48C115.51 78.68 116.438 74.456 118.294 70.808C120.15 67.096 122.742 64.216 126.07 62.168C129.462 60.12 133.302 59.096 137.59 59.096C143.67 59.096 148.502 61.08 152.086 65.048C155.67 69.016 157.462 74.392 157.462 81.176C157.462 82.456 157.206 83.384 156.694 83.96C156.182 84.536 155.35 84.824 154.198 84.824H123.286C123.862 95.832 129.078 101.336 138.934 101.336C141.43 101.336 143.574 101.016 145.366 100.376C147.158 99.672 149.078 98.744 151.126 97.592C152.79 96.632 153.91 96.152 154.486 96.152ZM137.686 65.144C133.59 65.144 130.294 66.424 127.798 68.984C125.366 71.544 123.926 75.16 123.478 79.832H150.646C150.518 75.096 149.334 71.48 147.094 68.984C144.854 66.424 141.718 65.144 137.686 65.144ZM188.215 107.672C183.863 107.672 179.991 106.68 176.599 104.696C173.271 102.712 170.679 99.896 168.823 96.248C167.031 92.6 166.135 88.376 166.135 83.576C166.135 78.776 167.063 74.52 168.919 70.808C170.839 67.096 173.495 64.216 176.887 62.168C180.279 60.12 184.183 59.096 188.599 59.096C191.031 59.096 193.431 59.448 195.799 60.152C198.231 60.792 200.343 61.752 202.135 63.032C203.287 63.8 204.087 64.568 204.535 65.336C205.047 66.04 205.303 66.84 205.303 67.736C205.303 68.632 205.047 69.368 204.535 69.944C204.087 70.52 203.479 70.808 202.711 70.808C202.263 70.808 201.783 70.68 201.271 70.424C200.759 70.168 200.311 69.912 199.927 69.656C199.607 69.4 199.383 69.24 199.255 69.176C197.591 68.088 195.991 67.224 194.455 66.584C192.983 65.944 191.159 65.624 188.983 65.624C184.311 65.624 180.663 67.224 178.039 70.424C175.479 73.56 174.199 77.944 174.199 83.576C174.199 89.208 175.479 93.56 178.039 96.632C180.663 99.704 184.311 101.24 188.983 101.24C191.159 101.24 193.015 100.92 194.551 100.28C196.151 99.64 197.751 98.776 199.351 97.688C200.055 97.24 200.727 96.856 201.367 96.536C202.007 96.216 202.551 96.056 202.999 96.056C203.703 96.056 204.279 96.344 204.727 96.92C205.239 97.496 205.495 98.232 205.495 99.128C205.495 99.96 205.271 100.728 204.823 101.432C204.375 102.072 203.543 102.808 202.327 103.64C200.535 104.856 198.359 105.848 195.799 106.616C193.303 107.32 190.775 107.672 188.215 107.672ZM236.456 101.336C238.696 101.528 239.816 102.552 239.816 104.408C239.816 105.496 239.4 106.328 238.568 106.904C237.8 107.416 236.616 107.608 235.016 107.48L232.424 107.288C227.304 106.904 223.528 105.368 221.096 102.68C218.664 99.992 217.448 95.928 217.448 90.488V66.392H211.016C209.928 66.392 209.064 66.136 208.424 65.624C207.848 65.048 207.56 64.312 207.56 63.416C207.56 62.456 207.848 61.688 208.424 61.112C209.064 60.536 209.928 60.248 211.016 60.248H217.448V49.4C217.448 48.184 217.8 47.256 218.504 46.616C219.208 45.912 220.168 45.56 221.384 45.56C222.536 45.56 223.464 45.912 224.168 46.616C224.872 47.256 225.224 48.184 225.224 49.4V60.248H235.88C236.904 60.248 237.704 60.536 238.28 61.112C238.92 61.688 239.24 62.456 239.24 63.416C239.24 64.312 238.92 65.048 238.28 65.624C237.704 66.136 236.904 66.392 235.88 66.392H225.224V90.872C225.224 94.392 225.928 96.952 227.336 98.552C228.808 100.088 230.984 100.952 233.864 101.144L236.456 101.336ZM330.137 59.288C332.825 59.096 334.169 60.184 334.169 62.552C334.169 63.576 333.881 64.408 333.305 65.048C332.729 65.624 331.737 65.976 330.329 66.104L327.449 66.392C323.161 66.776 319.961 68.312 317.849 71C315.801 73.624 314.777 76.728 314.777 80.312V103.64C314.777 104.92 314.425 105.88 313.721 106.52C313.017 107.16 312.089 107.48 310.937 107.48C309.785 107.48 308.825 107.16 308.057 106.52C307.353 105.816 307.001 104.856 307.001 103.64V63.128C307.001 61.912 307.385 60.984 308.153 60.344C308.921 59.64 309.849 59.288 310.937 59.288C311.961 59.288 312.825 59.64 313.529 60.344C314.233 60.984 314.585 61.88 314.585 63.032V68.408C315.929 65.592 317.817 63.448 320.249 61.976C322.745 60.504 325.593 59.64 328.793 59.384L330.137 59.288ZM377.447 61.688C378.151 60.152 379.271 59.384 380.807 59.384C381.767 59.384 382.631 59.704 383.399 60.344C384.167 60.984 384.551 61.784 384.551 62.744C384.551 63.32 384.423 63.832 384.167 64.28L357.191 122.456C356.871 123.16 356.391 123.704 355.751 124.088C355.175 124.472 354.567 124.664 353.927 124.664C352.967 124.664 352.103 124.344 351.335 123.704C350.631 123.128 350.279 122.36 350.279 121.4C350.279 120.888 350.407 120.376 350.663 119.864L357.383 105.368L338.375 64.28C338.119 63.832 337.991 63.352 337.991 62.84C337.991 61.88 338.407 61.048 339.239 60.344C340.135 59.64 341.095 59.288 342.119 59.288C342.759 59.288 343.367 59.48 343.943 59.864C344.583 60.248 345.063 60.792 345.383 61.496L361.415 97.496L377.447 61.688Z" fill="#F1F5F9"/>
<path d="M305 117L286.333 98.3333L305 117ZM292.556 82.7778C292.556 94.8053 282.805 104.556 270.778 104.556C258.75 104.556 249 94.8053 249 82.7778C249 70.7503 258.75 61 270.778 61C282.805 61 292.556 70.7503 292.556 82.7778Z" stroke="#E02424" stroke-width="6" stroke-linecap="round" stroke-linejoin="round"/>
<path d="M96.948 25.344C97.3 24.576 97.86 24.192 98.628 24.192C99.108 24.192 99.54 24.352 99.924 24.672C100.308 24.992 100.5 25.392 100.5 25.872C100.5 26.16 100.436 26.416 100.308 26.64L90.948 46.8C90.756 47.216 90.468 47.552 90.084 47.808C89.7 48.032 89.284 48.144 88.836 48.144C88.42 48.144 88.02 48.032 87.636 47.808C87.252 47.552 86.948 47.216 86.724 46.8L77.412 26.64C77.284 26.416 77.22 26.176 77.22 25.92C77.22 25.44 77.428 25.024 77.844 24.672C78.292 24.32 78.772 24.144 79.284 24.144C79.604 24.144 79.908 24.24 80.196 24.432C80.516 24.624 80.756 24.896 80.916 25.248L88.932 43.248L96.948 25.344ZM116.072 45.168C117.192 45.264 117.752 45.776 117.752 46.704C117.752 47.248 117.544 47.664 117.128 47.952C116.744 48.208 116.152 48.304 115.352 48.24L114.056 48.144C111.496 47.952 109.608 47.184 108.392 45.84C107.176 44.496 106.568 42.464 106.568 39.744V27.696H103.352C102.808 27.696 102.376 27.568 102.056 27.312C101.768 27.024 101.624 26.656 101.624 26.208C101.624 25.728 101.768 25.344 102.056 25.056C102.376 24.768 102.808 24.624 103.352 24.624H106.568V19.2C106.568 18.592 106.744 18.128 107.096 17.808C107.448 17.456 107.928 17.28 108.536 17.28C109.112 17.28 109.576 17.456 109.928 17.808C110.28 18.128 110.456 18.592 110.456 19.2V24.624H115.784C116.296 24.624 116.696 24.768 116.984 25.056C117.304 25.344 117.464 25.728 117.464 26.208C117.464 26.656 117.304 27.024 116.984 27.312C116.696 27.568 116.296 27.696 115.784 27.696H110.456V39.936C110.456 41.696 110.808 42.976 111.512 43.776C112.248 44.544 113.336 44.976 114.776 45.072L116.072 45.168ZM131.232 48.336C129.056 48.336 127.12 47.84 125.424 46.848C123.76 45.856 122.464 44.448 121.536 42.624C120.64 40.8 120.192 38.688 120.192 36.288C120.192 33.888 120.656 31.76 121.584 29.904C122.544 28.048 123.872 26.608 125.568 25.584C127.264 24.56 129.216 24.048 131.424 24.048C132.64 24.048 133.84 24.224 135.024 24.576C136.24 24.896 137.296 25.376 138.192 26.016C138.768 26.4 139.168 26.784 139.392 27.168C139.648 27.52 139.776 27.92 139.776 28.368C139.776 28.816 139.648 29.184 139.392 29.472C139.168 29.76 138.864 29.904 138.48 29.904C138.256 29.904 138.016 29.84 137.76 29.712C137.504 29.584 137.28 29.456 137.088 29.328C136.928 29.2 136.816 29.12 136.752 29.088C135.92 28.544 135.12 28.112 134.352 27.792C133.616 27.472 132.704 27.312 131.616 27.312C129.28 27.312 127.456 28.112 126.144 29.712C124.864 31.28 124.224 33.472 124.224 36.288C124.224 39.104 124.864 41.28 126.144 42.816C127.456 44.352 129.28 45.12 131.616 45.12C132.704 45.12 133.632 44.96 134.4 44.64C135.2 44.32 136 43.888 136.8 43.344C137.152 43.12 137.488 42.928 137.808 42.768C138.128 42.608 138.4 42.528 138.624 42.528C138.976 42.528 139.264 42.672 139.488 42.96C139.744 43.248 139.872 43.616 139.872 44.064C139.872 44.48 139.76 44.864 139.536 45.216C139.312 45.536 138.896 45.904 138.288 46.32C137.392 46.928 136.304 47.424 135.024 47.808C133.776 48.16 132.512 48.336 131.232 48.336Z" fill="#E02424"/>
</svg>
