<svg width="620" height="136" viewBox="0 0 620 136" fill="none" xmlns="http://www.w3.org/2000/svg">
<path d="M252.975 17.1961H245.631V104.748L177.087 17.1961H170.895V117.996H178.239V30.4441L246.919 117.996H252.967L252.975 17.1961Z" fill="#453C49"/>
<path d="M325.035 17.1961H317.691L271.311 117.996H279.231L321.279 25.2601L363.471 117.996H371.391L325.035 17.1961Z" fill="#453C49"/>
<path d="M465.135 17.1961H457.503L416.751 108.492L375.999 17.1961H367.935L412.863 117.996H420.207L465.135 17.1961Z" fill="#453C49"/>
<path d="M481.395 17.1961V117.996H488.739V17.1961H481.395Z" fill="#453C49"/>
<path d="M539.835 112.092C547.755 116.556 556.683 118.716 566.619 118.716C576.411 118.716 585.339 116.556 593.403 112.092C601.323 107.772 607.515 101.58 612.123 93.8041C616.731 86.0281 619.035 77.3881 619.035 67.5961C619.035 57.9481 616.731 49.1641 612.123 41.3881C607.515 33.6121 601.323 27.5641 593.403 23.1001C585.339 18.7801 576.411 16.4761 566.619 16.4761C556.683 16.4761 547.755 18.7801 539.835 23.2441C531.771 27.7081 525.579 33.7561 520.971 41.5321C516.363 49.3081 514.203 58.0921 514.203 67.5961C514.203 77.2441 516.363 85.8841 520.971 93.6601C525.579 101.436 531.771 107.628 539.835 112.092ZM589.515 106.188C582.603 110.076 574.971 111.948 566.619 111.948C558.123 111.948 550.491 110.076 543.579 106.188C536.667 102.444 531.339 97.1161 527.451 90.3481C523.419 83.5801 521.547 75.9481 521.547 67.5961C521.547 59.2441 523.419 51.7561 527.451 44.9881C531.339 38.2201 536.667 32.8921 543.579 29.0041C550.491 25.2601 558.123 23.2441 566.619 23.2441C574.971 23.2441 582.603 25.2601 589.515 29.0041C596.283 32.8921 601.611 38.2201 605.643 44.9881C609.531 51.7561 611.547 59.2441 611.547 67.5961C611.547 75.9481 609.531 83.5801 605.643 90.3481C601.611 97.1161 596.283 102.444 589.515 106.188V106.188Z" fill="#453C49"/>
<path d="M60.3548 0.00610352C59.8715 -0.00469648 59.4666 0.0100995 59.1559 0.0494995C58.8982 0.0819995 58.5133 0.149568 58.3011 0.199188C58.0888 0.248788 57.6998 0.363513 57.4358 0.453583C57.1723 0.544083 56.7369 0.727546 56.4692 0.861816C56.2011 0.996096 55.8195 1.21292 55.6215 1.34344C55.423 1.47396 55.1206 1.69206 54.9497 1.828C54.7787 1.96395 54.4843 2.22914 54.295 2.41721C54.1061 2.6057 53.8375 2.90011 53.6978 3.07233C53.5586 3.24414 53.3276 3.56313 53.1841 3.78122C53.0411 3.9989 52.8138 4.40254 52.68 4.67776C52.5457 4.95298 52.3685 5.37501 52.2855 5.61603C52.2025 5.85664 52.0982 6.21067 52.0536 6.4021C52.0086 6.5935 51.9431 6.94045 51.9081 7.17355C51.8706 7.42 51.8435 7.88411 51.8426 8.28485C51.8418 8.66307 51.8626 9.14182 51.8885 9.34827C51.9148 9.55469 51.9744 9.90163 52.0211 10.1197C52.0682 10.3374 52.172 10.7127 52.2521 10.9537C52.3318 11.1943 52.5069 11.6209 52.6403 11.9011C52.7742 12.1814 52.9906 12.5754 53.1216 12.7768C53.2525 12.9782 53.4839 13.3022 53.6353 13.4974C53.7867 13.6921 54.0719 14.0111 54.2683 14.2063C54.4651 14.401 54.7562 14.6667 54.9155 14.7955C55.0748 14.9248 55.3646 15.1374 55.5593 15.268C55.7545 15.3985 56.1998 15.6466 56.5501 15.8192L57.1861 16.1332L57.1757 20.0592L57.1649 23.9849L36.1489 24.0056L15.1329 24.0265L14.8623 24.1245C14.7134 24.1787 14.5161 24.2608 14.4244 24.3071C14.3322 24.3534 14.1379 24.4756 13.9924 24.5786C13.7751 24.7329 12.5617 26.1265 7.22528 32.3516C3.64948 36.5232 0.655483 40.0256 0.572083 40.1336C0.489083 40.242 0.358582 40.4622 0.282272 40.6227C0.206372 40.7833 0.111718 41.0368 0.0720978 41.1857C0.0245978 41.3641 0 41.6135 0 41.9154C0 42.2136 0.0250043 42.4692 0.0713043 42.6452C0.110104 42.794 0.217258 43.0697 0.309418 43.2569L0.476212 43.598L7.02362 51.2428C10.7895 55.6405 13.681 58.982 13.8303 59.1088C13.9733 59.2306 14.1843 59.384 14.299 59.4499C14.4137 59.5154 14.6576 59.6222 14.8411 59.6872L15.1747 59.8048L36.1707 59.8256L57.1667 59.8465V66.8938L53.5388 66.9151L49.9109 66.9364L49.6815 67.0131C49.5556 67.0552 49.328 67.1544 49.1762 67.2337C49.0248 67.3129 48.7904 67.4663 48.6562 67.5748C48.5219 67.6828 48.3209 67.8838 48.2104 68.0205C48.0995 68.1577 47.9443 68.4013 47.8651 68.5618C47.7863 68.7223 47.6841 69.0022 47.6383 69.1836L47.5549 69.5134V100.135L47.6383 100.465C47.6842 100.647 47.7863 100.926 47.8651 101.087C47.9443 101.248 48.0995 101.491 48.2104 101.628C48.3209 101.765 48.5206 101.965 48.6541 102.072C48.7871 102.18 49.0023 102.324 49.1324 102.393C49.2625 102.462 49.491 102.562 49.6399 102.615L49.9109 102.713L53.5388 102.734L57.1667 102.755L57.1771 115.921L57.1875 129.087L48.003 129.099L38.8185 129.111L38.5683 129.186C38.4307 129.227 38.1847 129.326 38.0216 129.406C37.8582 129.486 37.6146 129.64 37.4803 129.748C37.3461 129.856 37.1451 130.057 37.0342 130.194C36.9237 130.331 36.7589 130.594 36.6685 130.777C36.5784 130.961 36.4729 131.233 36.4345 131.382C36.3903 131.553 36.3649 131.813 36.3653 132.091C36.3661 132.41 36.3907 132.617 36.4566 132.854C36.5062 133.033 36.6009 133.286 36.6668 133.417C36.7331 133.547 36.8728 133.771 36.9774 133.913C37.0817 134.054 37.2923 134.274 37.4445 134.399C37.5971 134.525 37.8561 134.693 38.0199 134.773C38.1838 134.853 38.4403 134.953 38.5892 134.996L38.8602 135.072H81.5602L81.8938 134.959C82.0773 134.896 82.3483 134.774 82.4964 134.688C82.6444 134.601 82.8908 134.413 83.0447 134.268C83.1982 134.124 83.4008 133.889 83.4947 133.745C83.5885 133.601 83.714 133.363 83.7737 133.217C83.8329 133.071 83.9083 132.812 83.9404 132.642C83.973 132.472 83.9996 132.224 83.9996 132.091C83.9996 131.957 83.9729 131.709 83.9404 131.539C83.9083 131.369 83.8329 131.111 83.7737 130.964C83.7141 130.818 83.5885 130.581 83.4947 130.436C83.4009 130.293 83.1982 130.057 83.0447 129.913C82.8908 129.769 82.6444 129.58 82.4964 129.494C82.3483 129.407 82.0773 129.285 81.8938 129.223L81.5602 129.109L72.3757 129.098L63.1912 129.087V102.732H104.698L104.972 102.664C105.123 102.627 105.377 102.536 105.538 102.462C105.698 102.387 105.94 102.244 106.076 102.144C106.259 102.008 108.003 100.002 112.823 94.381C116.397 90.2118 119.389 86.7122 119.473 86.6042C119.556 86.4958 119.686 86.2756 119.763 86.1151C119.839 85.9545 119.933 85.701 119.973 85.5522C120.02 85.3737 120.045 85.1243 120.045 84.8224C120.045 84.5196 120.02 84.2715 119.973 84.0927C119.933 83.9434 119.844 83.6998 119.774 83.551C119.705 83.4025 119.57 83.1773 119.475 83.0506C119.38 82.9242 116.381 79.4147 112.813 75.252C108.004 69.6429 106.261 67.6373 106.082 67.5061C105.949 67.4089 105.725 67.273 105.585 67.2042C105.444 67.1354 105.181 67.0415 104.999 66.9956L104.677 66.9087H63.2018V59.8225L66.6733 59.8101L70.1448 59.7979L70.415 59.7003C70.5635 59.6465 70.7699 59.5598 70.8737 59.5073C70.9776 59.4548 71.1786 59.3259 71.3204 59.2212C71.4622 59.117 71.6811 58.9068 71.8062 58.755C71.9313 58.6032 72.1018 58.3443 72.1844 58.18C72.2674 58.0152 72.3725 57.7304 72.4183 57.547L72.5013 57.2133L72.4909 41.8054L72.48 26.3974L72.3666 26.0638C72.3041 25.8803 72.1819 25.608 72.0956 25.4591C72.0089 25.3098 71.7874 25.0375 71.6035 24.8536C71.3591 24.6093 71.1769 24.4712 70.9271 24.3416C70.7395 24.2436 70.4396 24.123 70.2612 24.0734L69.9363 23.9829L66.569 23.9679L63.2017 23.9525V16.082L63.2955 16.0536C63.3472 16.0382 63.6095 15.9156 63.8785 15.7817C64.1479 15.6479 64.5294 15.4319 64.7267 15.3022C64.9235 15.1721 65.225 14.9548 65.396 14.8189C65.5669 14.6829 65.8613 14.4177 66.0506 14.2296C66.2395 14.0412 66.5085 13.7464 66.6478 13.5746C66.7871 13.4023 67.026 13.0713 67.1786 12.8386C67.3308 12.6059 67.5677 12.1839 67.704 11.9003C67.8408 11.6172 68.0193 11.1818 68.1006 10.9329C68.1819 10.6839 68.2949 10.2523 68.3512 9.97375C68.4075 9.6952 68.4722 9.22151 68.4951 8.92126C68.5218 8.56639 68.5222 8.16691 68.4961 7.78076C68.474 7.45384 68.409 6.95345 68.3514 6.66907C68.2939 6.38426 68.1796 5.94973 68.0979 5.70328C68.0166 5.45683 67.8464 5.03942 67.7205 4.77591C67.5949 4.51195 67.4052 4.15541 67.2989 3.98361C67.193 3.81139 66.9736 3.49363 66.8114 3.27679C66.6492 3.05995 66.3198 2.68425 66.0787 2.44199C65.8381 2.20013 65.4487 1.85736 65.2135 1.68051C64.9787 1.50412 64.6034 1.25142 64.3795 1.11923C64.156 0.987042 63.7427 0.779774 63.4612 0.658844C63.1802 0.537494 62.7486 0.38156 62.5021 0.31192C62.2561 0.24232 61.8391 0.147632 61.5751 0.100922C61.262 0.0459216 60.8425 0.01082 60.3658 0L60.3548 0.00610352ZM60.1463 5.99551C60.2956 5.99351 60.5383 6.0209 60.6863 6.056C60.8339 6.0906 61.0737 6.17777 61.2184 6.24908C61.3631 6.32038 61.5987 6.48592 61.7418 6.61728C61.8848 6.74863 62.0729 6.97591 62.1596 7.12228C62.2459 7.26865 62.3556 7.51007 62.4031 7.65936C62.4627 7.84743 62.4898 8.04594 62.4911 8.30698C62.4931 8.54467 62.4665 8.774 62.4211 8.92996C62.3815 9.0659 62.2918 9.29066 62.2222 9.42953C62.1451 9.58215 61.9778 9.79856 61.7981 9.97787C61.5813 10.1943 61.4178 10.3136 61.1889 10.422C61.0171 10.5037 60.7769 10.5909 60.6551 10.6159C60.5338 10.6413 60.314 10.6618 60.1672 10.6618C60.0204 10.6618 59.8007 10.6414 59.6794 10.6159C59.5576 10.5909 59.3178 10.5037 59.1456 10.422C58.9166 10.3136 58.7532 10.1943 58.5363 9.97787C58.3566 9.79856 58.1894 9.58215 58.1122 9.42953C58.0426 9.29066 57.9538 9.06968 57.9158 8.93832C57.8728 8.7907 57.8466 8.55342 57.8474 8.31531C57.8483 8.04844 57.8746 7.84743 57.933 7.65936C57.9797 7.51007 58.0885 7.26866 58.1748 7.12228C58.2615 6.97591 58.4483 6.74949 58.5905 6.61938C58.7323 6.48886 58.9725 6.32206 59.1243 6.24783C59.2757 6.17403 59.5067 6.08769 59.6376 6.056C59.7682 6.0243 59.9975 5.99721 60.1464 5.99551H60.1463ZM41.8323 29.9685L66.4903 29.9692V53.8212L41.8133 53.8192L17.1373 53.8185L12.1333 47.9783C9.38112 44.7666 7.08761 42.0861 7.03671 42.0223L6.94411 41.9063L12.0599 35.9373L17.1761 29.9688L41.8323 29.9685ZM78.2383 72.9205L102.914 72.9215L107.994 78.8521C110.788 82.1135 113.076 84.7989 113.078 84.8194C113.08 84.8398 110.794 87.527 107.998 90.7913L102.914 96.7265L78.2383 96.7285L53.5623 96.7295V72.9175L78.2383 72.9205ZM22.0813 33.3295C21.8866 33.3195 21.6214 33.3285 21.4921 33.3491C21.3628 33.3695 21.1376 33.4263 20.9917 33.475C20.8457 33.5234 20.6101 33.6281 20.4684 33.7069C20.3266 33.7853 20.1026 33.9483 19.9705 34.0684C19.8383 34.1885 18.5898 35.6167 17.1962 37.2426C15.1133 39.6724 14.6325 40.2562 14.4924 40.5248C14.399 40.7046 14.2855 40.996 14.2405 41.1724C14.1857 41.3892 14.1588 41.6329 14.1588 41.9187C14.1588 42.2043 14.1855 42.4483 14.241 42.6643C14.286 42.8407 14.3995 43.1322 14.4929 43.3115C14.6317 43.5788 15.1058 44.1554 17.1042 46.4895C18.4469 48.0583 19.6612 49.4598 19.8026 49.6045C19.9439 49.7492 20.1924 49.951 20.3551 50.0532C20.5181 50.1549 20.7867 50.2846 20.9518 50.3409C21.1173 50.3972 21.4005 50.4635 21.5806 50.4881C21.8158 50.5202 22.0122 50.5202 22.2741 50.4877C22.4747 50.4627 22.7532 50.4043 22.8921 50.358C23.0314 50.3117 23.2486 50.2158 23.3746 50.1457C23.5009 50.0752 23.7103 49.9343 23.8404 49.8326C23.9701 49.7304 24.1598 49.5407 24.2619 49.411C24.3637 49.2809 24.5046 49.0711 24.5751 48.9452C24.6452 48.8188 24.7402 48.6032 24.7861 48.4656C24.832 48.328 24.8904 48.062 24.9158 47.8743C24.9496 47.6279 24.95 47.434 24.9178 47.1729C24.8932 46.9749 24.8198 46.6663 24.7543 46.4878C24.6892 46.3093 24.5696 46.0591 24.4883 45.9319C24.407 45.8048 23.6164 44.856 22.7319 43.8236C21.8471 42.7911 21.1231 41.9342 21.1231 41.9191C21.1231 41.9045 21.8649 41.0259 22.7719 39.9667C24.2423 38.2487 24.4407 38.0001 24.6067 37.6653C24.7089 37.4589 24.8235 37.1679 24.8611 37.019C24.9024 36.8572 24.9299 36.5799 24.9299 36.3309C24.9299 36.0824 24.9015 35.7959 24.8598 35.622C24.821 35.4615 24.7159 35.18 24.6267 34.9966C24.537 34.8131 24.3702 34.5483 24.2555 34.4077C24.1409 34.2672 23.9286 34.0629 23.7839 33.9536C23.6392 33.844 23.3894 33.6922 23.2289 33.6158C23.0683 33.5395 22.8244 33.4482 22.6868 33.4124C22.5492 33.3769 22.2773 33.3398 22.0821 33.3302L22.0813 33.3295ZM34.9873 33.3137C34.8726 33.3157 34.6712 33.3329 34.5395 33.3525C34.4077 33.3717 34.1667 33.4338 34.004 33.4901C33.8414 33.5468 33.6045 33.6552 33.4774 33.7315C33.3502 33.8078 33.1508 33.9542 33.0341 34.0576C32.9178 34.1606 31.6855 35.5734 30.2953 37.1968C28.9055 38.8206 27.7061 40.2509 27.6307 40.376C27.5548 40.5011 27.4343 40.768 27.363 40.969L27.2332 41.3343V42.5019L27.3633 42.8672C27.4346 43.0682 27.5552 43.335 27.6315 43.4605C27.7074 43.5861 28.8733 44.9793 30.2227 46.5563C31.5721 48.1334 32.8085 49.5508 32.9707 49.706C33.1842 49.9099 33.371 50.0391 33.647 50.1751C33.8568 50.2781 34.1508 50.3936 34.2996 50.4319C34.4735 50.4769 34.7275 50.5012 35.0085 50.4995C35.2758 50.4975 35.5519 50.4698 35.7174 50.4268C35.8667 50.3884 36.1386 50.2838 36.3221 50.195C36.5056 50.1062 36.7704 49.9398 36.9109 49.8251C37.0514 49.7105 37.2558 49.4982 37.365 49.3535C37.4747 49.2088 37.6269 48.959 37.7032 48.7985C37.7795 48.6379 37.8742 48.3844 37.9138 48.2355C37.9613 48.0562 37.9855 47.8093 37.9851 47.5058C37.9847 47.2005 37.9601 46.9561 37.9113 46.776C37.8709 46.6271 37.7741 46.3711 37.6957 46.2072C37.6173 46.0434 37.4743 45.8086 37.3775 45.686C37.2803 45.563 36.5335 44.6836 35.7175 43.732C34.9011 42.7804 34.2196 41.9785 34.2026 41.951C34.183 41.9189 34.7718 41.1996 35.8097 39.9865C36.7108 38.934 37.5103 37.9686 37.5865 37.8411C37.6628 37.7135 37.7696 37.4804 37.8246 37.3232C37.8792 37.166 37.9456 36.897 37.9722 36.7256C37.9997 36.5488 38.0089 36.284 37.9935 36.1147C37.9785 35.95 37.9389 35.706 37.9051 35.5726C37.8713 35.4387 37.7579 35.1548 37.6533 34.9417C37.5015 34.6319 37.3985 34.4888 37.1425 34.2328C36.9656 34.056 36.7142 33.8487 36.5833 33.772C36.4527 33.6948 36.2288 33.5848 36.0862 33.5272C35.9436 33.4697 35.685 33.3971 35.5116 33.3662C35.3381 33.3353 35.1025 33.3117 34.9878 33.3138L34.9873 33.3137ZM85.0063 76.2217C84.9033 76.2237 84.6869 76.2484 84.5263 76.278C84.3654 76.3072 84.116 76.3785 83.9726 76.4365C83.8287 76.4945 83.6044 76.6049 83.4738 76.6821C83.3437 76.7588 83.1048 76.954 82.9434 77.1149C82.7825 77.2763 82.5873 77.5152 82.5106 77.6453C82.4335 77.7758 82.3229 78.0006 82.265 78.1445C82.2066 78.2884 82.1307 78.5748 82.0961 78.7809C82.0453 79.0828 82.0415 79.23 82.0773 79.5356C82.1015 79.7446 82.1686 80.051 82.2266 80.2174C82.2841 80.3834 82.3938 80.6236 82.4701 80.7512C82.5464 80.8788 83.3449 81.8434 84.2453 82.895C85.1456 83.9466 85.882 84.8165 85.882 84.8282C85.882 84.8399 85.1455 85.7097 84.2453 86.7614C83.345 87.813 82.5465 88.7776 82.4701 88.9052C82.3938 89.0328 82.287 89.2659 82.232 89.4231C82.1774 89.5803 82.111 89.8493 82.0844 90.0207C82.0569 90.1975 82.0476 90.4623 82.063 90.6316C82.078 90.7963 82.1181 91.0402 82.1523 91.1737C82.1865 91.3075 82.2874 91.5669 82.3762 91.7504C82.4654 91.9338 82.6243 92.1916 82.7298 92.3233C82.8357 92.4551 83.0296 92.6482 83.1614 92.7524C83.2932 92.8571 83.5509 93.0164 83.7343 93.1069C83.9178 93.1974 84.1722 93.2979 84.3002 93.3304C84.4278 93.3625 84.6718 93.4021 84.8427 93.418C85.0579 93.4385 85.271 93.427 85.5396 93.3805C85.7522 93.3438 86.042 93.2667 86.1834 93.2095C86.3248 93.152 86.5537 93.0306 86.6926 92.9402C86.8314 92.8497 87.0516 92.6666 87.1813 92.534C87.3114 92.4014 88.5124 91.0136 89.8505 89.4507C91.1887 87.8878 92.3541 86.4895 92.4405 86.3441C92.5272 86.1986 92.6482 85.9291 92.7099 85.7457C92.8108 85.4454 92.8221 85.3533 92.8208 84.8283C92.8201 84.3095 92.8074 84.2074 92.7086 83.9109C92.6477 83.7274 92.5268 83.458 92.4405 83.3121C92.3538 83.1661 91.1465 81.7213 89.7579 80.1012C88.3689 78.4811 87.1375 77.0709 87.0215 76.9678C86.9051 76.8644 86.7058 76.718 86.5786 76.6417C86.4515 76.5654 86.2175 76.4578 86.0582 76.4027C85.8993 76.3473 85.6395 76.2835 85.4815 76.2605C85.323 76.2376 85.1095 76.2201 85.0061 76.2217L85.0063 76.2217ZM98.2393 76.2388C98.0154 76.2267 97.756 76.2408 97.5788 76.2759C97.4182 76.3076 97.1826 76.3726 97.055 76.421C96.9274 76.4694 96.716 76.5736 96.5851 76.6524C96.4542 76.7312 96.2678 76.863 96.1706 76.9452C96.0734 77.0273 95.9041 77.202 95.7936 77.3334C95.6835 77.4648 95.52 77.7225 95.4304 77.9059C95.3407 78.0894 95.2365 78.3709 95.1985 78.5315C95.1584 78.6999 95.1286 78.9997 95.1281 79.2404C95.1273 79.5443 95.1519 79.7474 95.2186 79.9885C95.2691 80.1707 95.3841 80.4617 95.4746 80.6348C95.603 80.8812 95.9958 81.3654 97.269 82.8474C98.1651 83.8907 98.9082 84.7677 98.9203 84.7956C98.932 84.8231 98.2076 85.7034 97.3098 86.7513C96.4124 87.7988 95.6143 88.7646 95.5367 88.8972C95.4591 89.0298 95.3478 89.2704 95.2894 89.4318C95.2314 89.5936 95.1635 89.8872 95.1389 90.0844C95.1068 90.343 95.1076 90.5381 95.1409 90.7837C95.1663 90.9714 95.2247 91.2357 95.2701 91.3713C95.316 91.5068 95.3969 91.704 95.4503 91.8099C95.5041 91.9154 95.6338 92.1164 95.7393 92.257C95.8448 92.3971 96.0487 92.6089 96.1921 92.7278C96.3356 92.8462 96.6029 93.0163 96.7864 93.1052C96.9699 93.194 97.2422 93.2995 97.391 93.3391C97.5699 93.3867 97.8184 93.4112 98.1208 93.4112C98.4218 93.4112 98.6725 93.3866 98.8505 93.3395C98.9998 93.2999 99.2742 93.1927 99.4606 93.1014C99.6549 93.0059 99.9122 92.8332 100.063 92.6969C100.208 92.5664 101.467 91.1294 102.86 89.5035C104.942 87.0745 105.424 86.4899 105.564 86.2213C105.657 86.0416 105.771 85.7501 105.816 85.5737C105.871 85.3577 105.898 85.1137 105.898 84.8281C105.898 84.5425 105.871 84.2985 105.816 84.0825C105.771 83.9061 105.657 83.6146 105.564 83.4349C105.424 83.1663 104.942 82.5817 102.86 80.1527C101.467 78.5269 100.206 77.0873 100.058 76.9539C99.8971 76.8088 99.654 76.6457 99.4551 76.5498C99.2716 76.4614 99.006 76.3597 98.8646 76.3238C98.7232 76.2879 98.4418 76.2495 98.2391 76.2387L98.2393 76.2388Z" fill="#2684CE"/>
</svg>
